<?xml version="1.0"?>
<svg xmlns:rdf="http://www.w3.org/1999/02/22-rdf-syntax-ns#" xmlns="http://www.w3.org/2000/svg" xmlns:cc="http://web.resource.org/cc/" xmlns:xlink="http://www.w3.org/1999/xlink" xmlns:dc="http://purl.org/dc/elements/1.1/" xmlns:svg="http://www.w3.org/2000/svg" id="Layer_1" style="enable-background:new 0 0 241.425 278.697" xml:space="preserve" viewBox="0 0 241.425 278.697" version="1.1" y="0px" x="0px">
<path clip-rule="evenodd" d="m206.94 26.385c0.986 0.225 0.613 1.806 1.813 1.815 0.173 23.014-7.346 44.311-17.243 59.903-6.308 9.931-11.068 19.357-21.785 24.503-7.829 3.764-17.648 5.647-28.134 6.354-2.892-3.813 1.278-5.322-2.722-9.076 3.206-11.417 4.461-26.25 9.982-37.211 1.463-2.904 4.154-5.205 6.353-8.169 2.237-3.017 3.737-6.629 5.447-8.169 6.171-5.551 15.547-8.647 22.689-13.612 7.39-5.137 12.797-11.836 20.873-15.43-0.705 10.649-6.872 18.777-11.799 26.32-4.392 6.723-8.388 10.654-13.612 17.245-7.445 9.391-15.56 18.552-22.69 29.042 15.396-8.852 26.642-22.795 37.211-39.026 7-10.746 11.49-20.48 13.62-34.485z" fill-rule="evenodd"/>
<path clip-rule="evenodd" d="m111.64 108.98c-8.967 1.808-14.735-5.881-23.599-7.261-1.784-0.277-3.833 0.896-6.352 0.909-3.028 0.015-6.562-1.841-9.078-1.815-2.57 0.025-5.496 1.595-8.169 1.815-8.369 0.685-17.11-1.974-26.32-0.909 9.753 2.277 20.039 4.061 29.951 3.63 3.549-0.153 6.658-1.85 9.986-1.815 13.225 0.142 23.75 8.466 35.394 9.984-3.416 5.654-21.841 9.019-30.855 9.076-4.679 0.031-9.483-2.131-14.524-2.722-2.951-0.347-6.36 0.436-9.074 0-5.846-0.942-12.468-3.427-18.151-5.445-8.117-2.883-14.392-7.35-23.598-9.078-6.74-1.265-12.926 1.978-17.247-4.537 9.484 0.581 21.686 3.017 30.859 0.906-7.054-5.231-25.331 3.128-29.042-5.445 24.995-5.242 53.819-24.176 83.5-12.706 11.081 4.27 23.932 12.776 26.322 25.401z" fill-rule="evenodd"/>
<path clip-rule="evenodd" d="m118.9 81.75h2.722c17.328 44.375 24.751 111.4 21.781 169.72-0.225 4.476 0.033 10.388-0.904 12.703-2.804 6.896-13.17 11.383-19.969 14.521 0.69-5.68 7.427-11.205 9.078-17.243 1.58-5.794 2.252-16.589 2.722-22.689 3.822-49.635-2.319-114.83-15.43-154.29-1.09-1.19-0.36-1.426 0-2.72z" fill-rule="evenodd"/>
<path clip-rule="evenodd" d="m119.81 148c-5.351 12.568-21.929 21.021-34.489 28.134-4.9 2.777-9.617 6.312-14.521 9.078-5.299 2.987-11.43 4.316-16.338 7.26-7.988 4.794-12.782 14.304-22.69 15.43 7.855 1.917 14.048-5.159 19.968-9.077 14.635-9.676 32.872-18.085 49.01-27.226 3.287-1.864 8.235-2.995 9.982-4.538 2.596-2.297 3.054-6.589 5.447-9.078 12.257 9.831-5.447 23.2-9.986 30.859-4 0.661-5.864 0.092-7.26 4.539-6.914 0.019-12.172 5.543-18.151 7.26-2.888 0.828-6.463 0.13-9.982 0.909-2.854 0.628-5.662 3.183-8.169 3.63-1.333 0.236-3.213-1.229-4.539-0.908-9.429 2.278-17.586 8.822-28.137 9.077-0.462-2.562-1.976-4.073-4.535-4.538 6.079-8.927 14.462-18.033 21.782-28.138 1.928-2.663 3.512-5.521 5.443-8.169 5.266-7.217 11.895-16.201 19.06-22.69 8.459-7.64 39.618-18.28 48.108-1.8z" fill-rule="evenodd"/>
<path clip-rule="evenodd" d="m241.42 166.16c-2.674 5.244-9.502 0.321-13.616-0.908-6.91 1.739-14.924 2.278-23.599 3.63-7.438 1.164-17.246 0.418-26.32 2.726-3.874 0.986-7.183 3.815-9.982 3.631-7.327-0.487-17.12-11.508-19.968-18.155 24.51-9.52 74.18-3.88 93.49 9.08z" fill-rule="evenodd"/>
<path clip-rule="evenodd" d="m119.81 79.026c-1.61-1.717-0.661-5.994-0.908-9.076-6.389-12.346-11.353-25.716-18.151-37.211-7.638-12.905-21.771-20.334-37.215-25.413 18.542 7.225 30.686 19.942 39.933 38.12 2.537 4.989 4.402 11.062 7.261 16.336 2.729 5.032 8.645 10.18 5.447 16.338-17.103 0.975-24.807-9.504-33.581-21.783-5.388-7.538-7.911-14.976-10.895-22.69-1.385-3.584-3.423-8.557-5.443-11.799-6.105-9.783-15.427-12.177-21.786-20.874 3.139-1.025 3.35 2.459 6.352-0.909 0.1-0.114 1.64-0.053 1.813 0 10.891 3.375 24.146 2.519 35.398 7.261 8.727 3.678 22.631 12.667 29.042 19.968 4.192 4.768 11.353 17.795 13.616 26.32 3.52 13.247 2.38 23.211-10.89 25.412z" fill-rule="evenodd"/>
<path clip-rule="evenodd" d="m239.61 161.62c-6.374-1.023-10.13-5.824-16.338-8.17-21.305-8.058-51.795-1.148-75.33-6.355 2.456-13.727 17.08-19.418 33.581-18.151 25.28 1.93 46.37 18.78 58.09 32.67z" fill-rule="evenodd"/>
<metadata><rdf:RDF><cc:Work><dc:format>image/svg+xml</dc:format><dc:type rdf:resource="http://purl.org/dc/dcmitype/StillImage"/><cc:license rdf:resource="http://creativecommons.org/licenses/publicdomain/"/><dc:publisher><cc:Agent rdf:about="http://openclipart.org/"><dc:title>Openclipart</dc:title></cc:Agent></dc:publisher><dc:title>leaf silhouette</dc:title><dc:date>2007-10-26T12:41:07</dc:date><dc:description>Line and Form by Walter Crane, 1914</dc:description><dc:source>http://openclipart.org/detail/7344/leaf-silhouette-by-johnny_automatic</dc:source><dc:creator><cc:Agent><dc:title>johnny_automatic</dc:title></cc:Agent></dc:creator><dc:subject><rdf:Bag><rdf:li>clip art</rdf:li><rdf:li>clipart</rdf:li><rdf:li>externalsource</rdf:li><rdf:li>image</rdf:li><rdf:li>leaf</rdf:li><rdf:li>media</rdf:li><rdf:li>plant</rdf:li><rdf:li>png</rdf:li><rdf:li>public domain</rdf:li><rdf:li>silhouette</rdf:li><rdf:li>svg</rdf:li></rdf:Bag></dc:subject></cc:Work><cc:License rdf:about="http://creativecommons.org/licenses/publicdomain/"><cc:permits rdf:resource="http://creativecommons.org/ns#Reproduction"/><cc:permits rdf:resource="http://creativecommons.org/ns#Distribution"/><cc:permits rdf:resource="http://creativecommons.org/ns#DerivativeWorks"/></cc:License></rdf:RDF></metadata></svg>
